<?xml version="1.0" encoding="utf-8"?>
<!-- Generator: Adobe Illustrator 17.1.0, SVG Export Plug-In . SVG Version: 6.00 Build 0)  -->
<!DOCTYPE svg PUBLIC "-//W3C//DTD SVG 1.1//EN" "http://www.w3.org/Graphics/SVG/1.1/DTD/svg11.dtd">
<svg version="1.1" id="Layer_1" xmlns="http://www.w3.org/2000/svg" xmlns:xlink="http://www.w3.org/1999/xlink" x="0px" y="0px"
	 width="32px" height="32px" viewBox="0 0 32 32" enable-background="new 0 0 32 32" xml:space="preserve">
<path fill="#FFFFFF" d="M28.8,10.2c0.1,0.2,0.2,0.5,0.2,0.8v11c0,1.1,0.1,2-1,2l-11,7c-0.4,0-0.7-0.1-1-0.3c-0.3,0.2-0.6,0.3-1,0.3
	L5,24c-1.1,0-2-0.9-2-2V11c0-0.3,0.1-0.6,0.2-0.8C2.7,9.4,2.8,8.5,3.5,7.9L15,1.4c1.5-0.7,0.5-0.6,1.8,0l11.6,6.4
	C29.1,8.5,29.2,9.4,28.8,10.2z M4.9,22l10,7V17.3l0,0L4.9,11V22z M15.9,2.8L4.9,9l10.7,6.5c0.1,0,0.2,0.1,0.3,0.2
	c0.1-0.1,0.2-0.1,0.4-0.2L26.9,9l0,0L15.9,2.8z M16.9,17.3V29l10-7V11L16.9,17.3z"/>
</svg>
