<?xml version="1.0" encoding="utf-8"?>
<!-- Generator: Adobe Illustrator 17.1.0, SVG Export Plug-In . SVG Version: 6.00 Build 0)  -->
<!DOCTYPE svg PUBLIC "-//W3C//DTD SVG 1.1//EN" "http://www.w3.org/Graphics/SVG/1.1/DTD/svg11.dtd">
<svg version="1.1" id="Layer_1" xmlns="http://www.w3.org/2000/svg" xmlns:xlink="http://www.w3.org/1999/xlink" x="0px" y="0px"
	 width="32px" height="32px" viewBox="0 0 32 32" enable-background="new 0 0 32 32" xml:space="preserve">
<g>
	<path fill="#D9B05E" d="M16,0C7.2,0,0,7.2,0,16c0,8.8,7.2,16,16,16s16-7.2,16-16C32,7.2,24.8,0,16,0z M25,17.6
		c-0.1,0.6-0.2,1.3-0.5,1.9c-0.2,0.6-0.6,1.2-1.1,1.6c-0.5,0.5-1.2,0.7-2,0.7c-0.4,0-0.8-0.1-1.1-0.2s-0.5-0.3-0.7-0.5
		s-0.3-0.4-0.4-0.6c-0.1-0.2-0.1-0.5-0.2-0.7c-0.5,0.5-1.1,0.9-1.8,1.2c-0.7,0.3-1.5,0.5-2.3,0.5c-1.2,0-2.2-0.3-2.8-1
		c-0.6-0.7-0.9-1.5-0.9-2.4c0-0.7,0.1-1.2,0.4-1.7c0.3-0.4,0.6-0.8,1.1-1.1c0.4-0.3,0.9-0.5,1.5-0.6s1.1-0.2,1.6-0.2
		c0.7,0,1.2,0.1,1.7,0.2c0.5,0.1,0.8,0.2,1.1,0.4c0-0.4,0-0.8-0.1-1.2s-0.2-0.7-0.4-0.9c-0.2-0.3-0.5-0.5-0.9-0.6
		c-0.4-0.1-0.8-0.2-1.4-0.2c-0.7,0-1.3,0.1-1.8,0.3c-0.5,0.2-1,0.4-1.4,0.8L12,11.6c1.2-0.8,2.6-1.2,4.1-1.2c1,0,1.8,0.2,2.4,0.5
		c0.6,0.3,1,0.7,1.3,1.2c0.3,0.5,0.5,1,0.5,1.6s0.1,1.1,0.1,1.7v2.3c0,0.4,0,0.7,0,1c0,0.3,0.1,0.6,0.2,0.9s0.2,0.5,0.4,0.6
		c0.2,0.1,0.4,0.2,0.7,0.2c0.4,0,0.8-0.2,1-0.5c0.3-0.3,0.5-0.7,0.6-1.2c0.1-0.5,0.2-0.9,0.3-1.4c0.1-0.5,0.1-0.9,0.1-1.3
		c0-1.1-0.2-2.1-0.6-3c-0.4-0.9-0.9-1.8-1.6-2.5c-0.7-0.7-1.5-1.2-2.4-1.6c-1-0.4-2-0.6-3.2-0.6c-1.1,0-2.1,0.2-3.1,0.6
		c-0.9,0.4-1.7,0.9-2.4,1.6c-0.7,0.7-1.2,1.5-1.6,2.4c-0.4,0.9-0.6,2-0.6,3.1c0,1.1,0.2,2.1,0.5,3c0.4,0.9,0.9,1.8,1.5,2.4
		c0.6,0.7,1.4,1.2,2.3,1.7s1.9,0.6,3.1,0.6c0.8,0,1.4-0.1,2-0.3c0.6-0.2,1.1-0.4,1.7-0.7l0.4,1.2c-0.7,0.3-1.4,0.6-2.1,0.7
		c-0.7,0.2-1.4,0.2-2.1,0.2c-1.2,0-2.3-0.2-3.4-0.7c-1.1-0.4-2-1.1-2.8-1.8s-1.4-1.7-1.9-2.9C7.2,18.5,7,17.3,7,15.9
		c0-1.4,0.3-2.7,0.8-3.8c0.5-1.1,1.2-2,2-2.8c0.8-0.8,1.8-1.3,2.9-1.7C13.7,7.2,14.9,7,16.1,7c1.2,0,2.3,0.2,3.4,0.6
		c1.1,0.4,2,1,2.9,1.8c0.8,0.8,1.5,1.7,2,2.9c0.5,1.1,0.7,2.4,0.7,3.9C25,16.5,25,17,25,17.6z"/>
	<path fill="#D9B05E" d="M15.8,16.2c-0.8,0-1.4,0.1-1.9,0.4c-0.5,0.3-0.8,0.7-0.8,1.4c0,0.5,0.2,0.9,0.5,1.3
		c0.3,0.4,0.8,0.6,1.5,0.6c0.4,0,0.7-0.1,1.1-0.2c0.4-0.1,0.7-0.2,1-0.4c0.5-0.2,0.8-0.5,1-0.8c0.2-0.3,0.3-0.7,0.3-1.1v-0.7
		c-0.2-0.1-0.6-0.2-1.1-0.3C17,16.3,16.4,16.2,15.8,16.2z"/>
</g>
<path fill="#B6612A" d="M16,40C7.2,40,0,47.2,0,56c0,8.8,7.2,16,16,16c8.8,0,16-7.2,16-16C32,47.2,24.8,40,16,40z M11.5,62.7H8.4
	v-10h3.1V62.7z M9.9,51.5L9.9,51.5c-1.2,0-1.9-0.8-1.9-1.7c0-1,0.8-1.7,1.9-1.7c1.2,0,1.9,0.7,1.9,1.7C11.8,50.7,11.1,51.5,9.9,51.5
	z M24,62.7h-3.5v-5.2c0-1.4-0.6-2.3-1.8-2.3c-0.9,0-1.4,0.6-1.7,1.2c-0.1,0.2-0.1,0.5-0.1,0.8v5.4h-3.5c0,0,0-9.1,0-10h3.5v1.6
	c0.2-0.7,1.3-1.7,3.1-1.7c2.2,0,4,1.4,4,4.5V62.7z"/>
<g>
	<path fill="#998548" d="M-46,0c-8.8,0-16,7.2-16,16c0,8.8,7.2,16,16,16c8.8,0,16-7.2,16-16C-30,7.2-37.2,0-46,0z M-39,25.8
		c0,0.6-0.5,1.2-1.2,1.2h-11.7c-0.6,0-1.2-0.5-1.2-1.2V6.2c0-0.6,0.5-1.2,1.2-1.2h11.7c0.6,0,1.2,0.5,1.2,1.2V25.8z"/>
	<circle fill="#998548" cx="-46" cy="24" r="1.5"/>
	<rect x="-51" y="7" fill="#998548" width="10" height="14"/>
	<rect x="-51" y="8" fill="none" width="10" height="14"/>
</g>
</svg>
