<?xml version="1.0" encoding="utf-8"?>
<!-- Generator: Adobe Illustrator 17.1.0, SVG Export Plug-In . SVG Version: 6.00 Build 0)  -->
<!DOCTYPE svg PUBLIC "-//W3C//DTD SVG 1.1//EN" "http://www.w3.org/Graphics/SVG/1.1/DTD/svg11.dtd">
<svg version="1.1" id="Layer_1" xmlns="http://www.w3.org/2000/svg" xmlns:xlink="http://www.w3.org/1999/xlink" x="0px" y="0px"
	 width="32px" height="32px" viewBox="0 0 32 32" enable-background="new 0 0 32 32" xml:space="preserve">
<g>
	<path fill="#D9B05E" d="M16-52C7.2-52,0-44.8,0-36c0,8.8,7.2,16,16,16s16-7.2,16-16C32-44.8,24.8-52,16-52z M25-34.4
		c-0.1,0.6-0.2,1.3-0.5,1.9c-0.2,0.6-0.6,1.2-1.1,1.6c-0.5,0.5-1.2,0.7-2,0.7c-0.4,0-0.8-0.1-1.1-0.2s-0.5-0.3-0.7-0.5
		s-0.3-0.4-0.4-0.6c-0.1-0.2-0.1-0.5-0.2-0.7c-0.5,0.5-1.1,0.9-1.8,1.2c-0.7,0.3-1.5,0.5-2.3,0.5c-1.2,0-2.2-0.3-2.8-1
		c-0.6-0.7-0.9-1.5-0.9-2.4c0-0.7,0.1-1.2,0.4-1.7c0.3-0.4,0.6-0.8,1.1-1.1c0.4-0.3,0.9-0.5,1.5-0.6s1.1-0.2,1.6-0.2
		c0.7,0,1.2,0.1,1.7,0.2c0.5,0.1,0.8,0.2,1.1,0.4c0-0.4,0-0.8-0.1-1.2s-0.2-0.7-0.4-0.9c-0.2-0.3-0.5-0.5-0.9-0.6
		c-0.4-0.1-0.8-0.2-1.4-0.2c-0.7,0-1.3,0.1-1.8,0.3c-0.5,0.2-1,0.4-1.4,0.8L12-40.4c1.2-0.8,2.6-1.2,4.1-1.2c1,0,1.8,0.2,2.4,0.5
		c0.6,0.3,1,0.7,1.3,1.2c0.3,0.5,0.5,1,0.5,1.6s0.1,1.1,0.1,1.7v2.3c0,0.4,0,0.7,0,1c0,0.3,0.1,0.6,0.2,0.9s0.2,0.5,0.4,0.6
		c0.2,0.1,0.4,0.2,0.7,0.2c0.4,0,0.8-0.2,1-0.5c0.3-0.3,0.5-0.7,0.6-1.2c0.1-0.5,0.2-0.9,0.3-1.4c0.1-0.5,0.1-0.9,0.1-1.3
		c0-1.1-0.2-2.1-0.6-3c-0.4-0.9-0.9-1.8-1.6-2.5c-0.7-0.7-1.5-1.2-2.4-1.6c-1-0.4-2-0.6-3.2-0.6c-1.1,0-2.1,0.2-3.1,0.6
		c-0.9,0.4-1.7,0.9-2.4,1.6c-0.7,0.7-1.2,1.5-1.6,2.4c-0.4,0.9-0.6,2-0.6,3.1c0,1.1,0.2,2.1,0.5,3c0.4,0.9,0.9,1.8,1.5,2.4
		c0.6,0.7,1.4,1.2,2.3,1.7s1.9,0.6,3.1,0.6c0.8,0,1.4-0.1,2-0.3c0.6-0.2,1.1-0.4,1.7-0.7l0.4,1.2c-0.7,0.3-1.4,0.6-2.1,0.7
		c-0.7,0.2-1.4,0.2-2.1,0.2c-1.2,0-2.3-0.2-3.4-0.7c-1.1-0.4-2-1.1-2.8-1.8s-1.4-1.7-1.9-2.9C7.2-33.5,7-34.7,7-36.1
		c0-1.4,0.3-2.7,0.8-3.8c0.5-1.1,1.2-2,2-2.8c0.8-0.8,1.8-1.3,2.9-1.7c1.1-0.4,2.2-0.6,3.4-0.6c1.2,0,2.3,0.2,3.4,0.6
		c1.1,0.4,2,1,2.9,1.8c0.8,0.8,1.5,1.7,2,2.9c0.5,1.1,0.7,2.4,0.7,3.9C25-35.5,25-35,25-34.4z"/>
	<path fill="#D9B05E" d="M15.8-35.8c-0.8,0-1.4,0.1-1.9,0.4c-0.5,0.3-0.8,0.7-0.8,1.4c0,0.5,0.2,0.9,0.5,1.3
		c0.3,0.4,0.8,0.6,1.5,0.6c0.4,0,0.7-0.1,1.1-0.2c0.4-0.1,0.7-0.2,1-0.4c0.5-0.2,0.8-0.5,1-0.8c0.2-0.3,0.3-0.7,0.3-1.1v-0.7
		c-0.2-0.1-0.6-0.2-1.1-0.3C17-35.7,16.4-35.8,15.8-35.8z"/>
</g>
<path fill="#B6612A" d="M78,0c-8.8,0-16,7.2-16,16c0,8.8,7.2,16,16,16c8.8,0,16-7.2,16-16C94,7.2,86.8,0,78,0z M73.5,22.7h-3.1v-10
	h3.1V22.7z M71.9,11.5L71.9,11.5c-1.2,0-1.9-0.8-1.9-1.7c0-1,0.8-1.7,1.9-1.7c1.2,0,1.9,0.7,1.9,1.7C73.8,10.7,73.1,11.5,71.9,11.5z
	 M86,22.7h-3.5v-5.2c0-1.4-0.6-2.3-1.8-2.3c-0.9,0-1.4,0.6-1.7,1.2c-0.1,0.2-0.1,0.5-0.1,0.8v5.4h-3.5c0,0,0-9.1,0-10h3.5v1.6
	c0.2-0.7,1.3-1.7,3.1-1.7c2.2,0,4,1.4,4,4.5V22.7z"/>
<g>
	<path fill="none" d="M21.8,5H10.2C9.5,5,9,5.5,9,6.2v19.7c0,0.6,0.5,1.2,1.2,1.2h11.7c0.6,0,1.2-0.5,1.2-1.2V6.2
		C23,5.5,22.5,5,21.8,5z M16,25.5c-0.8,0-1.5-0.7-1.5-1.5s0.7-1.5,1.5-1.5s1.5,0.7,1.5,1.5S16.8,25.5,16,25.5z"/>
	<path fill="#998548" d="M16,0C7.2,0,0,7.2,0,16c0,8.8,7.2,16,16,16c8.8,0,16-7.2,16-16C32,7.2,24.8,0,16,0z M23,25.8
		c0,0.6-0.5,1.2-1.2,1.2H10.2C9.5,27,9,26.5,9,25.8V6.2C9,5.5,9.5,5,10.2,5h11.7C22.5,5,23,5.5,23,6.2V25.8z"/>
	<circle fill="#998548" cx="16" cy="24" r="1.5"/>
	<rect x="11" y="7" fill="#998548" width="10" height="13"/>
</g>
</svg>
