<?xml version="1.0" encoding="utf-8"?>
<!-- Generator: Adobe Illustrator 17.1.0, SVG Export Plug-In . SVG Version: 6.00 Build 0)  -->
<!DOCTYPE svg PUBLIC "-//W3C//DTD SVG 1.1//EN" "http://www.w3.org/Graphics/SVG/1.1/DTD/svg11.dtd">
<svg version="1.1" id="Layer_1" xmlns="http://www.w3.org/2000/svg" xmlns:xlink="http://www.w3.org/1999/xlink" x="0px" y="0px"
	 width="32px" height="32px" viewBox="0 0 32 32" enable-background="new 0 0 32 32" xml:space="preserve">
<path fill="#FFFFFF" d="M30.4,6.3L15.3,21.4c-0.1,0.1-0.2,0.1-0.3,0.2c0.4,1.2,0.6,2.6,0,3.9c-2.3,5-14,4-14,4c6-3,0.7-6.8,4-10
	c2.1-2,4.2-2.2,5.8-1.9c0.1-0.1,0.1-0.3,0.3-0.4l2.8-2.8l0,0l1.4-1.4l0,0L26.2,2.1c0.8-0.8,2-0.8,2.8,0l1.4,1.4
	C31.2,4.3,31.2,5.5,30.4,6.3z M11.1,20c-0.3-0.3-0.5-0.7-0.5-1.1C9.7,18.7,8.4,19,7,20.5c-2.5,2.5,0,5-2,7c0,0,6.5,0.2,8-2
	c0.9-1.3,0.8-2.5,0.4-3.6c-0.3-0.1-0.7-0.2-0.9-0.5L11.1,20z M13.2,17.8c-0.4,0.4-0.4,1,0,1.4s1,0.4,1.4,0l2.1-2.1l-1.4-1.4
	L13.2,17.8z M28.3,4.2c-0.4-0.4-1-0.4-1.4,0L16.7,14.3l1.4,1.4L28.3,5.6C28.7,5.2,28.7,4.6,28.3,4.2z"/>
</svg>
